# xmcd CD database file generated by Grip 3.2.0
# 
# Track frame offsets:
#       150
#       13732
#       26375
#       41452
#       54337
#       68162
#       83060
#       97042
#       112082
#       128012
#       143170
#       155677
#       167932
#       181397
#       196040
#       209262
# 
# Disc length: 2992 seconds
# 
# Revision: 2
# Processed by: cddbd v1.5.2PL0 Copyright (c) Steve Scherf et al.
# Submitted via: Grip 3.2.0
# 
DISCID=d60bae10
DTITLE=Various Artist - The Story Of The Blues
DYEAR=1991
DGENRE=Blues
TTITLE0=Fra-Fra Tribesmen - Yarom Praise Songs
TTITLE1=Mississippi John Hurt - Stack O'Lee Blues
TTITLE2=Blind Willie McTell - Travelin' Blues
TTITLE3=Charley Patton - Stone Pony Blues
TTITLE4=Blind Lemon Jefferson - Black Snake Moan
TTITLE5=Leadbelly - Pig Meat Papa
TTITLE6=Texas Alexander - Broken Yo-Yo
TTITLE7=Peg Leg Howell - Broke and Hungry Blues
TTITLE8=Barbecue Bob and Laughing Charlie - It Won't Be Long Now
TTITLE9=Henry Williams and Eddie Anthony - Georgia Crawl
TTITLE10=Mississippi Jook Band - Dangerous Woman
TTITLE11=Memphis Jug Band - Gator Wobble
TTITLE12=Bessie Smith - In The House Blues
TTITLE13=Lillian Glinn - Shake It Down
TTITLE14=Bertha Chippie Hill - Pratt City Blues
TTITLE15=Butterbeans And Susie - What It Takes To Bring You Back
EXTD=
EXTT0=
EXTT1=
EXTT2=
EXTT3=
EXTT4=
EXTT5=
EXTT6=
EXTT7=
EXTT8=
EXTT9=
EXTT10=
EXTT11=
EXTT12=
EXTT13=
EXTT14=
EXTT15=
PLAYORDER=
